<svg id="Iconly_Light-outline_Search" data-name="Iconly/Light-outline/Search" xmlns="http://www.w3.org/2000/svg" width="15" height="16" viewBox="0 0 15 16">
  <g id="Search" transform="translate(-0.25 -0.25)">
    <path id="Search-2" data-name="Search" d="M13.938,15.851l-.075-.074-3.13-3.585a.808.808,0,0,1-.191-.444A6.726,6.726,0,0,1,6.65,12.979,6.579,6.579,0,0,1,0,6.49,6.579,6.579,0,0,1,6.65,0,6.579,6.579,0,0,1,13.3,6.49a6.384,6.384,0,0,1-1.826,4.462.648.648,0,0,1,.124.083l.075.075,3.13,3.584a.847.847,0,0,1,0,1.082.625.625,0,0,1-.472.225A.609.609,0,0,1,13.938,15.851ZM1.024,6.49A5.566,5.566,0,0,0,6.65,11.98a5.566,5.566,0,0,0,5.626-5.49A5.565,5.565,0,0,0,6.65,1,5.565,5.565,0,0,0,1.024,6.49Z" transform="translate(0.25 0.25)" fill="#200e32"/>
  </g>
</svg>
