<svg id="Iconly_Light-outline_Bag" data-name="Iconly/Light-outline/Bag" xmlns="http://www.w3.org/2000/svg" width="26.464" height="28.069" viewBox="0 0 26.464 28.069">
  <g id="Bag" transform="translate(-0.598 -0.509)">
    <path id="Bag-2" data-name="Bag" d="M8.28,28.579c-3.294,0-5.362-.621-6.511-1.955C.675,25.352.352,23.344.782,20.487l1.11-8.561c.622-3.343,2.17-4.968,4.731-4.968h.25A5.744,5.744,0,0,1,8.745,2.589,7.188,7.188,0,0,1,13.832.509a6.713,6.713,0,0,1,6.116,3.378,6.555,6.555,0,0,1,.758,3.071h.315c2.516,0,4.036,1.579,4.783,4.968l1.146,8.847c.326,2.771-.056,4.725-1.166,5.973-1.1,1.233-2.959,1.832-5.7,1.832ZM3.378,11.91l-1.1,8.524c-.359,2.386-.1,4.052.8,5.093s2.445,1.528,4.873,1.528H19.753c2.164,0,3.753-.568,4.723-1.687s1.309-2.791,1-4.955L24.389,12C23.9,9.81,22.664,8.5,21.074,8.5H6.676C5.01,8.5,3.777,9.776,3.378,11.91ZM19.092,6.958a5.449,5.449,0,0,0-5.26-5.1A5.888,5.888,0,0,0,9.946,3.424,5.48,5.48,0,0,0,8.378,6.958Z" transform="translate(0 0)" fill="#3c4146"/>
  </g>
</svg>
