<svg id="Iconly_Light-outline_Star" data-name="Iconly/Light-outline/Star" xmlns="http://www.w3.org/2000/svg" width="24" height="24" viewBox="0 0 24 24">
  <g id="Star" transform="translate(2 2.5)">
    <path id="Star-2" data-name="Star" d="M4.76,19a1.515,1.515,0,0,1-1.339-.8,1.489,1.489,0,0,1-.161-.95l.891-4.99a.042.042,0,0,0-.011-.03L.44,8.67A1.459,1.459,0,0,1,0,7.627a1.536,1.536,0,0,1,.461-1.1,1.653,1.653,0,0,1,.83-.4l5.05-.73c.02,0,.041-.009.041-.03L8.64.84A1.517,1.517,0,0,1,9.51.08,1.535,1.535,0,0,1,10,0,1.516,1.516,0,0,1,11.35.84L13.611,5.38c.01.01.02.02.029.02l5.062.73a1.536,1.536,0,0,1,1,.58,1.494,1.494,0,0,1-.16,1.97l-3.67,3.55s-.007.007-.007.01,0,0,.007.01l.88,5.01a1.51,1.51,0,0,1-1.25,1.71,1.588,1.588,0,0,1-.237.018,1.492,1.492,0,0,1-.712-.178l-4.521-2.36a.074.074,0,0,0-.04.01L5.44,18.84A1.489,1.489,0,0,1,4.76,19ZM9.981,1.46h0l-.01.007a.05.05,0,0,0-.02.022L7.69,6.019a1.513,1.513,0,0,1-1.129.83l-5.03.721-.061.02a.065.065,0,0,0-.009.041l3.7,3.55a1.513,1.513,0,0,1,.43,1.33l-.88,4.98v.02a.046.046,0,0,0,.044.034.034.034,0,0,0,.016,0L9.3,15.17a1.542,1.542,0,0,1,.721-.181,1.513,1.513,0,0,1,.7.171l4.5,2.35.009,0a.081.081,0,0,0,.029.01.015.015,0,0,0,.012,0h.021l.02-.019-.881-4.981a1.446,1.446,0,0,1,.431-1.339l3.67-3.559.01-.022-.01-.009h0a.038.038,0,0,1-.014,0,.066.066,0,0,0-.026-.006L13.43,6.849a1.508,1.508,0,0,1-1.129-.83L10.041,1.5a.031.031,0,0,0-.008-.023.033.033,0,0,0-.024-.008L10,1.46Z" transform="translate(-0.001 0)" fill="#e0ebd0"/>
  </g>
</svg>
