<svg id="Сгруппировать_8" data-name="Сгруппировать 8" xmlns="http://www.w3.org/2000/svg" width="18.347" height="18.348" viewBox="0 0 18.347 18.348">
  <path id="Контур_10" data-name="Контур 10" d="M129.423,124.544a4.708,4.708,0,1,0,4.708,4.708,4.707,4.707,0,0,0-4.708-4.708Zm0,7.763a3.056,3.056,0,1,1,3.056-3.056A3.055,3.055,0,0,1,129.423,132.307Z" transform="translate(-120.246 -120.081)" fill="#fff0de"/>
  <path id="Контур_11" data-name="Контур 11" d="M12.952.071C11.264-.008,7.083,0,5.393.071a5.483,5.483,0,0,0-3.85,1.484C-.221,3.319,0,5.7,0,9.183c0,3.569-.2,5.891,1.539,7.629,1.771,1.771,4.183,1.539,7.629,1.539,3.535,0,4.755,0,6-.482,1.7-.66,2.982-2.179,3.108-4.907.079-1.689.075-5.869,0-7.558C18.133,2.183,16.4.23,12.952.071Zm2.672,15.574C14.467,16.8,12.862,16.7,9.15,16.7c-3.822,0-5.355.057-6.474-1.065-1.288-1.282-1.055-3.341-1.055-6.462,0-4.224-.433-7.266,3.806-7.483.974-.034,1.261-.046,3.712-.046h0c4.074,0,7.3-.4,7.5,3.835.044.967.054,1.258.054,3.705,0,3.778.071,5.32-1.066,6.462Z" transform="translate(0.005 -0.013)" fill="#fff0de"/>
  <circle id="Эллипс_13" data-name="Эллипс 13" cx="1.1" cy="1.1" r="1.1" transform="translate(12.971 3.177)" fill="#fff0de"/>
</svg>
