<svg id="Сгруппировать_9" data-name="Сгруппировать 9" xmlns="http://www.w3.org/2000/svg" width="14.278" height="15.864" viewBox="0 0 14.278 15.864">
  <g id="Сгруппировать_6" data-name="Сгруппировать 6" transform="translate(0 0)">
    <g id="Сгруппировать_5" data-name="Сгруппировать 5">
      <path id="Контур_5" data-name="Контур 5" d="M114.4,83.492a4,4,0,0,1-.279-.348l-.07-.07a1.251,1.251,0,0,0-.348-.244l-5.154-2.96a.034.034,0,0,1-.035-.035l-5.189-2.995a1.966,1.966,0,0,0-1.463-.209,2.04,2.04,0,0,0-1.184.905,2.624,2.624,0,0,0-.209.453c-.035.1-.035.244-.07.383V90.527a1.9,1.9,0,0,0,1.915,1.915,1.577,1.577,0,0,0,.557-.1,2.127,2.127,0,0,0,.488-.244l5.119-2.96.07-.035,5.154-2.96c.035,0,.035-.035.07-.035a1.957,1.957,0,0,0,.836-1.149A1.816,1.816,0,0,0,114.4,83.492Zm-1.5,1.08a.075.075,0,0,1-.07.07H112.8l-5.119,2.995-.035.035-5.119,2.96c-.035,0-.035.035-.07.035a.034.034,0,0,0-.035.035h-.035c-.035,0-.07-.035-.1-.035a.128.128,0,0,1-.035-.1V78.478c.035-.035.07-.07.1-.07h.1l5.154,2.96.035.035,5.189,2.995.035.035.035.035Z" transform="translate(-100.4 -76.578)" fill="#fff0de"/>
    </g>
  </g>
</svg>
